<svg version="1.1" id="Layer_1" xmlns="http://www.w3.org/2000/svg" xmlns:xlink="http://www.w3.org/1999/xlink" x="0px" y="0px"
	 width="100%" viewBox="0 0 756 756" enable-background="new 0 0 756 756" xml:space="preserve">
<path fill="#FFFFFF" opacity="1.000000" stroke="none" 
	d="
M419.000000,757.000000 
	C280.833344,757.000000 143.166656,756.982300 5.500077,757.094177 
	C1.750567,757.097229 0.905094,756.249146 0.906647,752.499939 
	C1.009845,503.500000 1.009845,254.500000 0.906647,5.500039 
	C0.905094,1.750826 1.750826,0.905093 5.500039,0.906647 
	C254.500000,1.009847 503.500000,1.009847 752.499939,0.906647 
	C756.249146,0.905093 757.094910,1.750826 757.093384,5.500039 
	C756.990173,254.500000 756.990173,503.500000 757.093384,752.499939 
	C757.094910,756.249146 756.249573,757.098511 752.499878,757.094604 
	C641.500000,756.978088 530.500000,757.000000 419.000000,757.000000 
z"/>
<path fill="#0A62A5" opacity="1.000000" stroke="none" 
	d="
M198.999283,426.974915 
	C178.669800,426.979340 158.840240,427.032013 139.011032,426.968597 
	C129.747360,426.938965 121.519615,424.805115 116.844948,415.580750 
	C115.570808,413.066498 115.267265,410.550751 115.267822,407.870239 
	C115.273178,381.875366 115.334389,355.880188 115.198517,329.886047 
	C115.180374,326.415680 116.117981,325.223602 119.667786,325.231720 
	C160.826111,325.325714 201.984833,325.330994 243.143127,325.228271 
	C247.110153,325.218353 248.516205,326.530792 248.163940,330.483307 
	C247.839752,334.120941 247.763229,337.843719 248.156006,341.466278 
	C248.649796,346.020447 246.854584,347.223419 242.520615,347.198425 
	C216.193314,347.046539 189.864731,347.120453 163.536575,347.116028 
	C156.372635,347.114838 156.372635,347.110168 156.443207,354.388550 
	C156.544785,364.866211 156.544785,364.867157 167.121841,364.864960 
	C192.116898,364.859741 217.112640,364.945801 242.106400,364.762695 
	C246.599091,364.729797 248.672562,365.877777 248.162689,370.666107 
	C247.829224,373.797699 248.057053,376.991608 248.073700,380.157379 
	C248.107697,386.622742 248.118866,386.623138 241.413239,386.620789 
	C224.749878,386.614960 208.086517,386.608002 191.423157,386.602814 
	C181.758392,386.599823 172.089813,386.758179 162.430573,386.526550 
	C158.015701,386.420654 156.145828,387.610504 156.314957,392.441864 
	C156.738983,404.554993 156.536743,404.565643 168.573639,404.561096 
	C193.235367,404.551727 217.897751,404.627014 242.558212,404.443848 
	C246.967087,404.411102 248.596283,405.796783 248.170700,410.199524 
	C247.835449,413.667603 247.742325,417.230896 248.144989,420.681458 
	C248.722366,425.629333 246.779739,427.151306 241.989288,427.076874 
	C227.828857,426.856903 213.663055,426.984192 198.999283,426.974915 
z"/>
<path fill="#0B63A6" opacity="1.000000" stroke="none" 
	d="
M360.078979,396.000610 
	C360.087067,404.999878 359.970154,413.501953 360.163177,421.997009 
	C360.245972,425.642670 359.006012,427.115967 355.277313,427.066956 
	C344.446655,426.924622 333.610901,426.892181 322.781555,427.075531 
	C318.903412,427.141205 317.941803,425.452911 317.964661,421.955261 
	C318.117188,398.626312 318.088287,375.296112 318.282379,351.967682 
	C318.313477,348.234680 317.040375,347.010162 313.341797,347.064758 
	C301.178558,347.244263 289.005249,346.927094 276.848297,347.258789 
	C271.857452,347.394928 270.305756,345.671326 270.746460,340.894226 
	C271.112305,336.928223 270.905212,332.899384 270.793213,328.902832 
	C270.720795,326.318207 271.864990,325.224365 274.354736,325.283844 
	C275.520447,325.311707 276.687683,325.270966 277.854218,325.270996 
	C318.851318,325.271210 359.848785,325.357910 400.844971,325.164734 
	C405.910278,325.140900 407.838745,326.484894 407.193298,331.626068 
	C406.781281,334.907776 406.809814,338.316498 407.180634,341.607452 
	C407.703583,346.248230 405.643433,347.276886 401.442261,347.204803 
	C389.446655,346.999023 377.442596,347.277679 365.447510,347.057678 
	C361.294617,346.981537 359.923065,348.351288 359.982117,352.504547 
	C360.185944,366.834137 360.072296,381.168182 360.078979,396.000610 
z"/>
<path fill="#EB6017" opacity="1.000000" stroke="none" 
	d="
M527.991760,356.993958 
	C527.988342,347.015289 529.663574,347.174927 518.541138,347.235382 
	C503.546265,347.316895 488.549377,347.374237 473.556244,347.195892 
	C469.455109,347.147095 468.094971,348.384735 468.135864,352.620789 
	C468.357849,375.611633 468.218658,398.605743 468.379242,421.597565 
	C468.407654,425.664307 467.109009,427.291870 462.913605,427.213257 
	C452.420532,427.016541 441.919952,427.053253 431.425171,427.197021 
	C427.425110,427.251831 425.823425,425.933197 425.843384,421.680450 
	C425.985596,391.357391 426.015991,361.032684 425.807404,330.710358 
	C425.775940,326.133575 427.393646,324.937714 431.582642,324.946869 
	C471.237061,325.033478 510.891815,324.958099 550.546265,325.037048 
	C561.442566,325.058746 569.900208,333.514130 570.021362,344.304840 
	C570.135437,354.467102 569.953247,364.633148 570.110657,374.794312 
	C570.170349,378.644806 568.790344,380.189911 564.851562,380.105988 
	C556.024963,379.917969 547.191589,380.006714 538.361511,380.067139 
	C536.664734,380.078735 534.337158,379.041687 533.506897,381.304962 
	C532.718750,383.453461 535.027161,384.407349 536.244629,385.604462 
	C550.969055,400.083160 565.749939,414.504425 580.505737,428.951172 
	C581.772400,430.191254 583.872803,431.329529 582.864990,433.411102 
	C582.002197,435.193085 579.867432,434.319733 578.288208,434.323212 
	C565.458984,434.351501 552.629395,434.270325 539.800476,434.341034 
	C537.127014,434.355774 535.126526,433.608551 533.168152,431.670837 
	C517.069824,415.742462 500.851868,399.935181 484.706665,384.054016 
	C483.465363,382.833038 481.131439,381.857758 481.840607,379.771759 
	C482.624237,377.466736 485.037781,378.652924 486.698425,378.642853 
	C498.693573,378.569916 510.691437,378.514374 522.684204,378.710052 
	C526.950806,378.779633 528.689087,377.682343 528.158020,372.977417 
	C527.582214,367.875824 528.003845,362.661682 527.991760,356.993958 
z"/>
<path fill="#0961A5" opacity="1.000000" stroke="none" 
	d="
M599.695312,342.004456 
	C599.680237,337.510803 599.799377,333.509308 599.604919,329.523102 
	C599.460083,326.553497 600.501221,325.253143 603.561462,325.274200 
	C614.880066,325.352112 626.199524,325.338470 637.518372,325.284851 
	C640.240479,325.271973 641.370117,326.318085 641.364746,329.137360 
	C641.305298,360.264893 641.296692,391.392609 641.363342,422.520081 
	C641.371094,426.135071 639.643250,427.062988 636.410339,427.032898 
	C625.924377,426.935364 615.434143,426.846741 604.951599,427.056274 
	C600.682434,427.141571 599.559814,425.412506 599.581543,421.403839 
	C599.724365,395.104187 599.678894,368.803497 599.695312,342.004456 
z"/>
<path fill="#EB5405" opacity="1.000000" stroke="none" 
	d="
M444.049561,423.008545 
	C429.430634,423.008545 429.003662,422.585297 429.003662,408.579590 
	C429.003662,387.253571 429.105194,365.926727 428.926910,344.602203 
	C428.886169,339.728790 431.577393,335.512878 431.322144,330.566772 
	C431.198639,328.173309 434.223175,329.036987 435.875854,329.030029 
	C452.036652,328.961975 468.197906,328.989288 484.359009,328.988983 
	C505.185181,328.988617 526.018616,329.293671 546.833069,328.798798 
	C552.985168,328.652496 558.651855,328.615448 562.234314,333.970612 
	C564.517578,337.383606 566.340515,341.633850 566.731628,345.667511 
	C567.435608,352.926636 567.066772,360.309998 566.841187,367.632080 
	C566.688416,372.590820 563.963257,375.598572 558.824829,375.855865 
	C555.670288,376.013794 552.483704,376.109802 549.346497,375.834564 
	C547.252625,375.650879 545.116272,374.922699 543.967346,371.004913 
	C542.869629,375.879211 540.193542,376.632782 537.048828,375.825439 
	C532.683899,374.704834 532.842773,370.320740 532.291260,367.322266 
	C531.498657,363.013184 531.508301,358.396454 532.501282,353.937836 
	C534.207397,346.277191 531.509338,343.813263 523.838379,343.854126 
	C509.382751,343.931122 494.916870,344.633270 480.445923,343.450867 
	C476.152893,343.100098 471.588501,345.344360 467.080017,339.741058 
	C468.043304,343.748383 467.383820,345.713654 465.373596,347.207703 
	C463.860596,348.332214 464.002563,350.114044 464.003357,351.798340 
	C464.013580,372.957733 464.003998,394.117126 464.027435,415.276489 
	C464.028717,416.426544 464.083496,417.641968 464.446808,418.713959 
	C465.569031,422.025238 463.921173,422.990723 461.034363,423.000031 
	C455.536255,423.017761 450.038086,423.007294 444.049561,423.008545 
z"/>
</svg>